<svg xmlns="http://www.w3.org/2000/svg" height="120" width="160">
    <!-- Vertical lines-->
    <rect x="10" y="10" height="100" width="130" fill-opacity="0" stroke-width="2" stroke="black"/>
    <line x1="15" x2="15" y1="10" y2="110" style="stroke:rgb(0,0,0);stroke-width:2"/>
    <line x1="40" x2="40" y1="10" y2="110" style="stroke:rgb(0,0,0);stroke-width:2"/>
    <line x1="65" x2="65" y1="10" y2="110" style="stroke:rgb(0,0,0);stroke-width:2"/>
    <line x1="90" x2="90" y1="10" y2="110" style="stroke:rgb(0,0,0);stroke-width:2"/>
    <line x1="115" x2="115" y1="10" y2="110" style="stroke:rgb(0,0,0);stroke-width:2"/>
    <!-- Horizontal lines-->
    <line x1="10" x2="140" y1="30" y2="30" style="stroke:rgb(0,0,0);stroke-width:2"/>
    <line x1="10" x2="140" y1="50" y2="50" style="stroke:rgb(0,0,0);stroke-width:2"/>
    <line x1="10" x2="140" y1="70" y2="70" style="stroke:rgb(0,0,0);stroke-width:2"/>
    <line x1="10" x2="140" y1="90" y2="90" style="stroke:rgb(0,0,0);stroke-width:2"/>


    <!-- Circles -->
    <circle cx="150" cy="10" r="3" stroke="black" stroke-width="2" fill-opacity="0"/>
    <circle cx="150" cy="30" r="3" stroke="black" stroke-width="2" fill-opacity="0"/>
    <circle cx="150" cy="50" r="3" stroke="black" stroke-width="2" fill-opacity="0"/>
    <circle cx="150" cy="70" r="3" stroke="black" stroke-width="2" fill-opacity="0"/>
    <circle cx="150" cy="90" r="3" stroke="black" stroke-width="2" fill-opacity="0"/>
    <circle cx="150" cy="110" r="3" stroke="black" stroke-width="2" fill-opacity="0"/>

</svg>
